<svg width="513" height="513" viewBox="0 0 513 513" fill="#FFFFFF" xmlns="http://www.w3.org/2000/svg">
<g clip-path="url(#clip0_68_22)">
<path d="M266.672 384C272.56 384 277.339 379.221 277.339 373.333V309.333C277.339 303.445 272.56 298.666 266.672 298.666C260.784 298.666 256.005 303.445 256.005 309.333V373.333C256.005 379.221 260.784 384 266.672 384Z" fill="inherit"/>
<path d="M490.672 0H21.3389C9.56288 0 0.00488281 9.557 0.00488281 21.333V170.666H512.005V21.333C512.005 9.557 502.469 0 490.672 0ZM256.005 128H85.3389C73.5629 128 64.0059 118.443 64.0059 106.667C64.0059 94.891 73.5629 85.334 85.3389 85.334H256.006C267.782 85.334 277.339 94.891 277.339 106.667C277.339 118.443 267.781 128 256.005 128ZM441.755 112.917C450.096 121.258 450.096 134.741 441.755 143.082C437.595 147.242 432.134 149.333 426.672 149.333C421.21 149.333 415.749 147.242 411.589 143.082L405.338 136.831L399.087 143.082C394.927 147.242 389.466 149.333 384.004 149.333C378.543 149.333 373.081 147.242 368.921 143.082C360.58 134.741 360.58 121.258 368.921 112.917L375.172 106.666L368.921 100.415C360.58 92.074 360.58 78.591 368.921 70.25C377.262 61.909 390.745 61.909 399.086 70.25L405.337 76.501L411.588 70.25C419.929 61.909 433.412 61.909 441.753 70.25C450.094 78.591 450.094 92.074 441.753 100.415L435.502 106.666L441.755 112.917Z" fill="inherit"/>
<path d="M0.00490625 490.677C0.00490625 502.453 9.56191 512.01 21.3379 512.01H490.671C502.468 512.01 512.004 502.453 512.004 490.677V213.344H0.00390625L0.00490625 490.677ZM341.339 263.115C341.339 251.339 350.896 241.782 362.672 241.782C374.448 241.782 384.005 251.339 384.005 263.115V320.011C384.005 308.214 393.562 298.678 405.338 298.678C417.114 298.678 426.671 308.214 426.671 320.011C438.447 320.011 448.004 329.547 448.004 341.344C448.004 353.12 438.447 362.677 426.671 362.677V405.344C426.671 417.12 417.114 426.677 405.338 426.677C393.562 426.677 384.005 417.12 384.005 405.344V362.677H362.672C350.896 362.677 341.339 353.12 341.339 341.344V263.115ZM213.339 309.344C213.339 279.925 237.275 256.011 266.672 256.011C296.069 256.011 320.005 279.926 320.005 309.344V373.344C320.005 402.741 296.069 426.677 266.672 426.677C237.275 426.677 213.339 402.741 213.339 373.344V309.344ZM85.3389 263.115C85.3389 251.339 94.8959 241.782 106.672 241.782C118.448 241.782 128.005 251.339 128.005 263.115V320.011C128.005 308.214 137.562 298.678 149.338 298.678C161.114 298.678 170.671 308.214 170.671 320.011C182.447 320.011 192.004 329.547 192.004 341.344C192.004 353.12 182.447 362.677 170.671 362.677V405.344C170.671 417.12 161.114 426.677 149.338 426.677C137.562 426.677 128.005 417.12 128.005 405.344V362.677H106.672C94.8959 362.677 85.3389 353.12 85.3389 341.344V263.115Z" fill="inherit"/>
</g>
<defs>
<clipPath id="clip0_68_22">
<rect width="512.011" height="512.011" fill="white"/>
</clipPath>
</defs>
</svg>
